<svg xmlns="http://www.w3.org/2000/svg" xmlns:xlink="http://www.w3.org/1999/xlink" width="24" height="24" viewBox="0 0 24 24" class="_26pLRpNtEUZ9tKdp6r2IVJ oZiwSnfyf4hPs52HEui8Q"><defs><path id="146a" d="M16 16h2v-1h-2a.997.997 0 0 0-1 1v3h1v-3zM8 4h8a2 2 0 0 1 2 2v11a2 2 0 0 1-2 2H8a2 2 0 0 1-2-2V6a2 2 0 0 1 2-2zm1.5 4a.5.5 0 0 0 0 1h5a.5.5 0 1 0 0-1h-5zm0 3a.5.5 0 1 0 0 1h5a.5.5 0 1 0 0-1h-5zm0 3a.5.5 0 1 0 0 1h3a.5.5 0 1 0 0-1h-3z"></path></defs><use fill="#ccc" xlink:href="#146a" fill-rule="evenodd"></use></svg>